<?xml version="1.0" encoding="UTF-8"?>
<svg version="1.1" xmlns="http://www.w3.org/2000/svg" width="624" height="592">
<path d="M0 0 C205.92 0 411.84 0 624 0 C624 195.36 624 390.72 624 592 C418.08 592 212.16 592 0 592 C0 396.64 0 201.28 0 0 Z " fill="#FEFEFE" transform="translate(0,0)"/>
<path d="M0 0 C1.0866243 -0.0033284 2.1732486 -0.0066568 3.2928009 -0.01008606 C5.57792744 -0.01512641 7.86306127 -0.01749528 10.14819336 -0.01733398 C13.64383943 -0.01953082 17.13917484 -0.03774554 20.63476562 -0.05664062 C22.86067601 -0.05957308 25.08658788 -0.06155886 27.3125 -0.0625 C28.3552861 -0.06968552 29.3980722 -0.07687103 30.47245789 -0.08427429 C31.4472963 -0.08119766 32.4221347 -0.07812103 33.42651367 -0.07495117 C34.2795256 -0.07637619 35.13253754 -0.07780121 36.01139832 -0.07926941 C38.7791477 0.2005327 40.93102839 1.02976405 43.45703125 2.16796875 C43.78703125 1.83796875 44.11703125 1.50796875 44.45703125 1.16796875 C46.38370632 1.08048668 48.31354986 1.06099541 50.2421875 1.0703125 C51.99692383 1.07514648 51.99692383 1.07514648 53.78710938 1.08007812 C55.01880859 1.08845703 56.25050781 1.09683594 57.51953125 1.10546875 C59.37288086 1.11223633 59.37288086 1.11223633 61.26367188 1.11914062 C64.32817242 1.13097267 67.39257846 1.14745702 70.45703125 1.16796875 C69.89115747 4.67891481 69.02648903 7.31025992 67.2265625 10.37109375 C66.76056641 11.17353516 66.29457031 11.97597656 65.81445312 12.80273438 C65.30462891 13.66576172 64.79480469 14.52878906 64.26953125 15.41796875 C63.1707206 17.30792306 62.07311451 19.19857808 60.9765625 21.08984375 C60.39986816 22.08177734 59.82317383 23.07371094 59.22900391 24.09570312 C56.25220358 29.25691218 53.35743465 34.46357047 50.45703125 39.66796875 C44.71789374 49.94027264 38.92099834 60.17724526 33.05810547 70.37939453 C31.32420147 73.399317 29.59582819 76.4223745 27.8671875 79.4453125 C6.69736815 116.39271663 -15.02873239 154.143501 -44.54296875 185.16796875 C-45.3421875 186.04324219 -46.14140625 186.91851562 -46.96484375 187.8203125 C-58.4997688 200.05261047 -72.9477913 208.69151579 -90.06307602 209.25023651 C-92.96180321 209.27191409 -95.85860798 209.26066691 -98.75732422 209.23730469 C-99.85433655 209.23251602 -100.95134888 209.22772736 -102.081604 209.22279358 C-105.69118204 209.20517734 -109.30063743 209.17941022 -112.91015625 209.15234375 C-115.43067394 209.1356369 -117.95119193 209.11897499 -120.47171021 209.10235596 C-125.74891809 209.06594256 -131.0260718 209.02473433 -136.30322266 208.98095703 C-142.38115478 208.93073162 -148.4590524 208.89550092 -154.53712165 208.86702323 C-160.41051929 208.83865705 -166.28370945 208.79408542 -172.15695572 208.74372101 C-174.64388948 208.72458645 -177.13086524 208.71025958 -179.61785507 208.7009201 C-183.10211422 208.68651962 -186.58574551 208.65356153 -190.06982422 208.61621094 C-191.08728729 208.61607498 -192.10475037 208.61593903 -193.15304565 208.61579895 C-206.62156633 208.41990269 -215.89207897 203.74050403 -225.60546875 194.60546875 C-246.05218681 173.33708968 -253.47882253 140.11960575 -259.81640625 112.30126953 C-261.03347328 107.05266796 -262.35104798 101.8297505 -263.66796875 96.60546875 C-263.92078613 95.59943604 -264.17360352 94.59340332 -264.43408203 93.55688477 C-264.91824412 91.63027665 -265.40276556 89.70375879 -265.88769531 87.77734375 C-266.46163741 85.49183959 -267.03132611 83.20536846 -267.59765625 80.91796875 C-270.4764108 69.30778511 -273.50750531 57.73801176 -276.54296875 46.16796875 C-278.69517286 45.95117057 -278.69517286 45.95117057 -280.390625 47.75 C-285.31524402 52.7093606 -289.86469842 57.83575584 -294.23046875 63.29296875 C-296.59658197 66.23462302 -299.03379991 69.10563286 -301.48046875 71.98046875 C-305.73864322 77.05162801 -309.60226159 82.32106348 -313.32006836 87.80004883 C-314.34757335 89.28941531 -315.43974956 90.7337838 -316.54296875 92.16796875 C-317.20296875 92.16796875 -317.86296875 92.16796875 -318.54296875 92.16796875 C-318.70539063 93.62396484 -318.70539063 93.62396484 -318.87109375 95.109375 C-319.5168418 99.60816165 -320.87620564 103.79820858 -322.29296875 108.10546875 C-322.84005841 109.80331626 -323.38693021 111.50123399 -323.93359375 113.19921875 C-324.20623047 114.0396875 -324.47886719 114.88015625 -324.75976562 115.74609375 C-325.87443092 119.19293905 -326.9622943 122.64784068 -328.04296875 126.10546875 C-328.24390137 126.74500488 -328.44483398 127.38454102 -328.65185547 128.04345703 C-329.78422905 131.66615732 -330.87925916 135.29746951 -331.94140625 138.94140625 C-339.7099218 165.55292539 -347.88959024 190.68606989 -373.68359375 204.8984375 C-392.99531291 214.34438709 -413.96487151 214.46955641 -434.98046875 214.29296875 C-437.08007383 214.2829127 -439.1796836 214.27379152 -441.27929688 214.265625 C-446.36730576 214.24383371 -451.45508387 214.20945041 -456.54296875 214.16796875 C-455.4595647 210.75045297 -454.373596 207.5620679 -452.58203125 204.453125 C-452.19861572 203.77822021 -451.8152002 203.10331543 -451.42016602 202.40795898 C-451.00694092 201.68938721 -450.59371582 200.97081543 -450.16796875 200.23046875 C-446.03904264 192.91146393 -442.02338751 185.53966857 -438.10546875 178.10546875 C-437.59773926 177.15486572 -437.09000977 176.2042627 -436.56689453 175.22485352 C-433.64442878 169.65160853 -431.30044318 164.20826512 -429.54296875 158.16796875 C-429.31037354 157.37430908 -429.07777832 156.58064941 -428.83813477 155.76293945 C-428.34015208 154.04962016 -427.84412877 152.33573041 -427.34985352 150.62133789 C-421.57372984 130.82172969 -414.31846842 111.2174334 -404.53320312 93.02636719 C-403.46223489 91.01645343 -402.43079534 88.98900787 -401.40234375 86.95703125 C-395.03126534 74.4770645 -387.74292547 62.73544561 -378.8203125 51.90234375 C-377.34394835 50.08417039 -377.34394835 50.08417039 -376.54296875 47.16796875 C-375.55296875 46.50796875 -374.56296875 45.84796875 -373.54296875 45.16796875 C-372.95515625 44.08515625 -372.95515625 44.08515625 -372.35546875 42.98046875 C-370.19770275 39.63221116 -367.63432601 37.55088208 -364.6015625 35.0078125 C-362.08944176 32.76263438 -360.02983008 30.30255229 -357.96484375 27.6484375 C-356.54296875 26.16796875 -356.54296875 26.16796875 -354.49609375 25.15625 C-352.2091442 24.20020561 -352.2091442 24.20020561 -350.54296875 21.16796875 C-349.55296875 21.16796875 -348.56296875 21.16796875 -347.54296875 21.16796875 C-347.04796875 19.68296875 -347.04796875 19.68296875 -346.54296875 18.16796875 C-341.02386093 13.50999832 -334.16661155 11.12719987 -327.41796875 8.85546875 C-326.66652588 8.60112061 -325.91508301 8.34677246 -325.14086914 8.0847168 C-314.70453393 4.72777369 -305.88151882 4.61874112 -295.796875 9.49609375 C-288.85225801 13.5127672 -283.16484573 18.49741751 -277.54296875 24.16796875 C-276.91132813 23.74386719 -276.2796875 23.31976563 -275.62890625 22.8828125 C-258.28624134 11.51262153 -241.44350551 4.92030506 -220.60546875 5.10546875 C-219.63544922 5.10998047 -218.66542969 5.11449219 -217.66601562 5.11914062 C-215.29160115 5.13083725 -212.91731854 5.14722789 -210.54296875 5.16796875 C-210.21296875 5.82796875 -209.88296875 6.48796875 -209.54296875 7.16796875 C-208.88296875 6.50796875 -208.22296875 5.84796875 -207.54296875 5.16796875 C-196.04063611 3.63033053 -185.72325116 7.42239462 -176.54296875 14.16796875 C-163.10855724 25.40816205 -156.03085507 40.29335328 -149.54296875 56.16796875 C-149.15496094 57.09738281 -148.76695312 58.02679688 -148.3671875 58.984375 C-142.90306804 72.99320803 -139.78995794 88.08564148 -136.16973877 102.64981079 C-134.92216655 107.66214997 -133.66735825 112.67268329 -132.4140625 117.68359375 C-131.84828077 119.94660795 -131.28252594 122.20962888 -130.71679688 124.47265625 C-130.28862671 126.18533691 -130.28862671 126.18533691 -129.85180664 127.93261719 C-126.41552734 141.67773438 -122.97924805 155.42285156 -119.54296875 169.16796875 C-118.88296875 169.16796875 -118.22296875 169.16796875 -117.54296875 169.16796875 C-117.42074951 168.62930176 -117.29853027 168.09063477 -117.17260742 167.53564453 C-116.42372887 164.7195824 -115.46054939 162.02542497 -114.46875 159.28515625 C-113.84250732 157.54697632 -113.84250732 157.54697632 -113.20361328 155.77368164 C-112.53628174 153.92697876 -112.53628174 153.92697876 -111.85546875 152.04296875 C-105.45298679 134.23879486 -99.48637776 116.35859789 -94.22827148 98.18017578 C-73.04855688 25.08498173 -73.04855688 25.08498173 -47.54296875 10.16796875 C-32.43370643 2.45916144 -16.77112378 0.01800237 0 0 Z " fill="#126DB2" transform="translate(514.54296875,32.83203125)"/>
<path d="M0 0 C1.0866243 -0.0033284 2.1732486 -0.0066568 3.2928009 -0.01008606 C5.57792744 -0.01512641 7.86306127 -0.01749528 10.14819336 -0.01733398 C13.64383943 -0.01953082 17.13917484 -0.03774554 20.63476562 -0.05664062 C22.86067601 -0.05957308 25.08658788 -0.06155886 27.3125 -0.0625 C28.3552861 -0.06968552 29.3980722 -0.07687103 30.47245789 -0.08427429 C31.4472963 -0.08119766 32.4221347 -0.07812103 33.42651367 -0.07495117 C34.2795256 -0.07637619 35.13253754 -0.07780121 36.01139832 -0.07926941 C38.7791477 0.2005327 40.93102839 1.02976405 43.45703125 2.16796875 C43.78703125 1.83796875 44.11703125 1.50796875 44.45703125 1.16796875 C46.38370632 1.08048668 48.31354986 1.06099541 50.2421875 1.0703125 C51.99692383 1.07514648 51.99692383 1.07514648 53.78710938 1.08007812 C55.01880859 1.08845703 56.25050781 1.09683594 57.51953125 1.10546875 C59.37288086 1.11223633 59.37288086 1.11223633 61.26367188 1.11914062 C64.32817242 1.13097267 67.39257846 1.14745702 70.45703125 1.16796875 C69.89115747 4.67891481 69.02648903 7.31025992 67.2265625 10.37109375 C66.76056641 11.17353516 66.29457031 11.97597656 65.81445312 12.80273438 C65.30462891 13.66576172 64.79480469 14.52878906 64.26953125 15.41796875 C63.1707206 17.30792306 62.07311451 19.19857808 60.9765625 21.08984375 C60.39986816 22.08177734 59.82317383 23.07371094 59.22900391 24.09570312 C56.25220358 29.25691218 53.35743465 34.46357047 50.45703125 39.66796875 C44.71789374 49.94027264 38.92099834 60.17724526 33.05810547 70.37939453 C31.32420147 73.399317 29.59582819 76.4223745 27.8671875 79.4453125 C6.69736815 116.39271663 -15.02873239 154.143501 -44.54296875 185.16796875 C-45.3421875 186.04324219 -46.14140625 186.91851562 -46.96484375 187.8203125 C-58.39915384 199.94591258 -72.79430503 208.66183974 -89.77685547 209.24462891 C-92.03318575 209.26553436 -94.28670579 209.25588592 -96.54296875 209.23046875 C-97.31769531 209.22595703 -98.09242188 209.22144531 -98.890625 209.21679688 C-100.77477399 209.20516633 -102.6588824 209.18723781 -104.54296875 209.16796875 C-104.54296875 208.83796875 -104.54296875 208.50796875 -104.54296875 208.16796875 C-102.56296875 207.50796875 -100.58296875 206.84796875 -98.54296875 206.16796875 C-101.65585358 202.38062554 -104.56828078 199.07254842 -108.54296875 196.16796875 C-108.54296875 195.50796875 -108.54296875 194.84796875 -108.54296875 194.16796875 C-109.20296875 193.83796875 -109.86296875 193.50796875 -110.54296875 193.16796875 C-111.62146055 190.92892598 -112.60393178 188.71442549 -113.54296875 186.41796875 C-113.80335938 185.79664063 -114.06375 185.1753125 -114.33203125 184.53515625 C-115.07783246 182.74975336 -115.81065762 180.95894707 -116.54296875 179.16796875 C-117.13078125 177.79898438 -117.13078125 177.79898438 -117.73046875 176.40234375 C-118.54296875 174.16796875 -118.54296875 174.16796875 -118.54296875 171.16796875 C-119.20296875 171.16796875 -119.86296875 171.16796875 -120.54296875 171.16796875 C-120.87296875 172.15796875 -121.20296875 173.14796875 -121.54296875 174.16796875 C-122.30609375 174.62171875 -123.06921875 175.07546875 -123.85546875 175.54296875 C-126.63912069 177.00937648 -126.63912069 177.00937648 -128.35546875 179.48046875 C-131.27498447 183.06730235 -134.78432257 185.51319681 -138.54296875 188.16796875 C-149.83095798 183.3473887 -156.26807575 164.79489218 -160.66015625 154.2109375 C-169.61830992 131.52360118 -176.50818064 107.94467019 -183.96826172 84.73486328 C-188.4392456 70.8382535 -193.11066976 57.29024521 -199.54296875 44.16796875 C-199.86088379 43.5037793 -200.17879883 42.83958984 -200.50634766 42.15527344 C-206.92449014 28.85008308 -214.63301494 17.96887701 -227.54296875 10.16796875 C-224.78073597 7.40573597 -222.33590258 7.58940584 -218.54296875 7.16796875 C-218.54296875 6.50796875 -218.54296875 5.84796875 -218.54296875 5.16796875 C-215.90296875 5.16796875 -213.26296875 5.16796875 -210.54296875 5.16796875 C-210.21296875 5.82796875 -209.88296875 6.48796875 -209.54296875 7.16796875 C-208.88296875 6.50796875 -208.22296875 5.84796875 -207.54296875 5.16796875 C-196.04063611 3.63033053 -185.72325116 7.42239462 -176.54296875 14.16796875 C-163.10855724 25.40816205 -156.03085507 40.29335328 -149.54296875 56.16796875 C-149.15496094 57.09738281 -148.76695312 58.02679688 -148.3671875 58.984375 C-142.90306804 72.99320803 -139.78995794 88.08564148 -136.16973877 102.64981079 C-134.92216655 107.66214997 -133.66735825 112.67268329 -132.4140625 117.68359375 C-131.84828077 119.94660795 -131.28252594 122.20962888 -130.71679688 124.47265625 C-130.4313501 125.61444336 -130.14590332 126.75623047 -129.85180664 127.93261719 C-126.41552734 141.67773438 -122.97924805 155.42285156 -119.54296875 169.16796875 C-118.88296875 169.16796875 -118.22296875 169.16796875 -117.54296875 169.16796875 C-117.42074951 168.62930176 -117.29853027 168.09063477 -117.17260742 167.53564453 C-116.42372887 164.7195824 -115.46054939 162.02542497 -114.46875 159.28515625 C-114.05125488 158.12636963 -113.63375977 156.96758301 -113.20361328 155.77368164 C-112.53628174 153.92697876 -112.53628174 153.92697876 -111.85546875 152.04296875 C-105.45298679 134.23879486 -99.48637776 116.35859789 -94.22827148 98.18017578 C-73.04855688 25.08498173 -73.04855688 25.08498173 -47.54296875 10.16796875 C-32.43370643 2.45916144 -16.77112378 0.01800237 0 0 Z " fill="#197BC0" transform="translate(514.54296875,32.83203125)"/>
<path d="M0 0 C2 1 2 1 2.81640625 2.85546875 C4.2138821 7.22349536 5.41438004 11.43216431 6 16 C6.44730469 15.60167969 6.89460937 15.20335938 7.35546875 14.79296875 C10.75380411 11.81489661 14.03285004 9.2039722 18 7 C18.99 6.34 19.98 5.68 21 5 C23 7 23 7 23 10 C23.66 10 24.32 10 25 10 C38.84264254 33.63948859 48.52473248 58.41838623 58.12255859 84 C71.91515881 121.57002786 71.91515881 121.57002786 92 156 C92.64195312 156.91652344 93.28390625 157.83304688 93.9453125 158.77734375 C99.66292894 166.47413511 106.89407037 172.71858392 116 176 C105.77590985 182.8160601 90.6537898 182.29806847 78.875 180.53125 C66.05756033 177.16667209 55.85780068 166.83632278 48.875 156 C36.16424578 134.07522515 29.31887972 109.68034705 23.7265625 85.13330078 C22.50949547 79.88469921 21.19192077 74.66178175 19.875 69.4375 C19.62218262 68.43146729 19.36936523 67.42543457 19.10888672 66.38891602 C18.62472463 64.4623079 18.14020319 62.53579004 17.65527344 60.609375 C17.08133134 58.32387084 16.51164264 56.03739971 15.9453125 53.75 C13.06655795 42.13981636 10.03546344 30.57004301 7 19 C4.84779589 18.78320182 4.84779589 18.78320182 3.15234375 20.58203125 C-1.77227527 25.54139185 -6.32172967 30.66778709 -10.6875 36.125 C-13.05361322 39.06665427 -15.49083116 41.93766411 -17.9375 44.8125 C-22.19567447 49.88365926 -26.05929284 55.15309473 -29.77709961 60.63208008 C-30.8046046 62.12144656 -31.89678081 63.56581505 -33 65 C-33.66 65 -34.32 65 -35 65 C-35.10828125 65.97066406 -35.2165625 66.94132812 -35.328125 67.94140625 C-35.97387305 72.4401929 -37.33323689 76.63023983 -38.75 80.9375 C-39.29708966 82.63534751 -39.84396146 84.33326524 -40.390625 86.03125 C-40.66326172 86.87171875 -40.93589844 87.7121875 -41.21679688 88.578125 C-42.33146217 92.0249703 -43.41932555 95.47987193 -44.5 98.9375 C-44.70093262 99.57703613 -44.90186523 100.21657227 -45.10888672 100.87548828 C-46.2412603 104.49818857 -47.33629041 108.12950076 -48.3984375 111.7734375 C-56.16695305 138.38495664 -64.34662149 163.51810114 -90.140625 177.73046875 C-101.36186677 183.21911962 -112.59541616 185.35183256 -125 186 C-124.47054302 180.23809149 -122.16482605 175.82997946 -119.5625 170.76953125 C-118.90229858 169.46117561 -118.90229858 169.46117561 -118.22875977 168.12638855 C-116.82671017 165.3511984 -115.41383518 162.58170168 -114 159.8125 C-112.58827244 157.03156969 -111.17881329 154.24951175 -109.77124023 151.46647644 C-108.8960282 149.73773041 -108.01802648 148.0103933 -107.13696289 146.28462219 C-106.73985107 145.50338486 -106.34273926 144.72214752 -105.93359375 143.91723633 C-105.4085022 142.88848137 -105.4085022 142.88848137 -104.87280273 141.83894348 C-103.88129747 139.84571123 -103.88129747 139.84571123 -103 137 C-102.34 137 -101.68 137 -101 137 C-100.90203125 136.48179687 -100.8040625 135.96359375 -100.703125 135.4296875 C-88.8147535 94.34875931 -51.93261987 52.40025432 -23.25 21.5625 C-22.64833008 20.9123291 -22.04666016 20.2621582 -21.42675781 19.59228516 C-17.1948911 15.08855166 -12.70504447 11.00249836 -8 7 C-7.41976074 6.49162598 -6.83952148 5.98325195 -6.24169922 5.45947266 C-2.2380942 2 -2.2380942 2 0 2 C0 1.34 0 0.68 0 0 Z " fill="#44ADE4" transform="translate(231,60)"/>
<path d="M0 0 C8.58 0 17.16 0 26 0 C30.34115632 6.20165188 34.56791809 12.34103344 38.5625 18.75 C39.6103058 20.41950391 40.65849849 22.08876506 41.70703125 23.7578125 C42.51648193 25.04800293 42.51648193 25.04800293 43.34228516 26.36425781 C46.12877466 30.79473508 48.93884796 35.21014395 51.75 39.625 C52.32951416 40.53540039 52.90902832 41.44580078 53.50610352 42.38378906 C58.67031438 50.49163533 63.85351524 58.58729248 69.03808594 66.68212891 C73.94189046 74.34062728 78.82824795 82.01004903 83.70654297 89.68481445 C88.77516294 97.6554312 93.86718974 105.61097574 98.96875 113.56054688 C105.02646731 123.01135269 111.00504897 132.50799421 117 142 C117 95.14 117 48.28 117 0 C123.6 0 130.2 0 137 0 C137 56.43 137 112.86 137 171 C113 171 113 171 107.76171875 166.56640625 C106.11621094 163.68603516 106.11621094 163.68603516 104.6875 160.5625 C103.51987415 158.4360096 102.3519029 156.30970882 101.18359375 154.18359375 C100.64718262 153.12897949 100.11077148 152.07436523 99.55810547 150.98779297 C97.39478707 146.83945537 94.85749846 143.00287764 92.25 139.125 C91.36045216 137.75443621 90.47369561 136.38205642 89.58984375 135.0078125 C87.87639133 132.35501524 86.16024815 129.70399582 84.44140625 127.0546875 C79.01164821 118.68211458 73.62192804 110.2848016 68.25 101.875 C61.13179382 90.73493119 53.92424773 79.65520553 46.69140625 68.58935547 C37.93331168 55.18168355 29.24043414 41.73405689 21 28 C20.67 75.19 20.34 122.38 20 171 C13.4 171 6.8 171 0 171 C0 114.57 0 58.14 0 0 Z " fill="#030303" transform="translate(107,372)"/>
<path d="M0 0 C28.71 0 57.42 0 87 0 C87 5.94 87 11.88 87 18 C64.89 18 42.78 18 20 18 C20 36.48 20 54.96 20 74 C40.46 74 60.92 74 82 74 C82 80.27 82 86.54 82 93 C61.54 93 41.08 93 20 93 C20 112.47 20 131.94 20 152 C43.43 152 66.86 152 91 152 C91 157.94 91 163.88 91 170 C89.16705282 171.83294718 86.60750874 171.11999158 84.16886044 171.12442875 C83.32930593 171.12083064 82.48975142 171.11723253 81.62475586 171.11352539 C80.73253861 171.11364593 79.84032137 171.11376646 78.92106724 171.11389065 C76.01896781 171.11314135 73.11693177 171.10551237 70.21484375 171.09765625 C68.42875194 171.09618688 66.64265971 171.09516614 64.85656738 171.09460449 C58.21687171 171.08935101 51.57718524 171.07538993 44.9375 171.0625 C30.108125 171.041875 15.27875 171.02125 0 171 C0 114.57 0 58.14 0 0 Z " fill="#050505" transform="translate(282,372)"/>
<path d="M0 0 C2.64 0 5.28 0 8 0 C8.33 0.66 8.66 1.32 9 2 C9.66 1.34 10.32 0.68 11 0 C22.50233264 -1.53763822 32.81971759 2.25442587 42 9 C55.43441151 20.2401933 62.51211368 35.12538453 69 51 C69.38800781 51.92941406 69.77601563 52.85882813 70.17578125 53.81640625 C75.63990071 67.82523928 78.75301081 82.91767273 82.37322998 97.48184204 C83.6208022 102.49418122 84.8756105 107.50471454 86.12890625 112.515625 C86.69468798 114.7786392 87.26044281 117.04166013 87.82617188 119.3046875 C88.11161865 120.44647461 88.39706543 121.58826172 88.69116211 122.76464844 C90.63728841 130.54915365 92.58341471 138.33365885 94.52954102 146.11816406 C94.77141144 147.07662231 95.01328186 148.03508057 95.26248169 149.02258301 C95.78628128 151.13720144 96.29125115 153.25652349 96.78317261 155.37878418 C97.04027008 156.47033813 97.29736755 157.56189209 97.56225586 158.68652344 C97.79045517 159.68053162 98.01865448 160.67453979 98.25376892 161.69866943 C98.50002518 162.45810852 98.74628143 163.21754761 99 164 C99.66 164.33 100.32 164.66 101 165 C100.01 165.33 99.02 165.66 98 166 C97.67 166.99 97.34 167.98 97 169 C96.236875 169.45375 95.47375 169.9075 94.6875 170.375 C91.90384806 171.84140773 91.90384806 171.84140773 90.1875 174.3125 C87.26798428 177.8993336 83.75864618 180.34522806 80 183 C68.71201077 178.17941995 62.274893 159.62692343 57.8828125 149.04296875 C48.92465883 126.35563243 42.03478811 102.77670144 34.57470703 79.56689453 C30.10372315 65.67028475 25.43229899 52.12227646 19 39 C18.68208496 38.33581055 18.36416992 37.67162109 18.03662109 36.98730469 C11.61847861 23.68211433 3.90995381 12.80090826 -9 5 C-6.23776722 2.23776722 -3.79293383 2.42143709 0 2 C0 1.34 0 0.68 0 0 Z " fill="#4EB8EA" transform="translate(296,38)"/>
<path d="M0 0 C39.27 0 78.54 0 119 0 C119 5.94 119 11.88 119 18 C102.83 18 86.66 18 70 18 C70.00523682 22.59929443 70.01047363 27.19858887 70.01586914 31.93725586 C70.03240059 47.09256988 70.04352026 62.24788425 70.05181217 77.40320492 C70.05697545 86.59652604 70.06401875 95.78983864 70.07543945 104.9831543 C70.08538532 112.99307036 70.09185319 121.00298025 70.09408849 129.01290232 C70.09539577 133.25677253 70.09848266 137.5006251 70.10573006 141.74448967 C70.11248874 145.7342907 70.11461727 149.7240667 70.11310768 153.71387291 C70.11338408 155.18249395 70.1153901 156.65111579 70.11920547 158.1197319 C70.12414028 160.11622776 70.12239813 162.11273687 70.12025452 164.10923767 C70.12117631 165.22921615 70.1220981 166.34919462 70.12304783 167.50311184 C70 170 70 170 69 171 C62.4 171 55.8 171 49 171 C49 120.51 49 70.02 49 18 C32.83 18 16.66 18 0 18 C0 12.06 0 6.12 0 0 Z " fill="#090909" transform="translate(391,372)"/>
<path d="M0 0 C2.125 0.4375 2.125 0.4375 4 1 C4.33 0.67 4.66 0.34 5 0 C6.92667507 -0.08748207 8.85651861 -0.10697334 10.78515625 -0.09765625 C11.95498047 -0.09443359 13.12480469 -0.09121094 14.33007812 -0.08789062 C15.56177734 -0.07951172 16.79347656 -0.07113281 18.0625 -0.0625 C19.91584961 -0.05573242 19.91584961 -0.05573242 21.80664062 -0.04882812 C24.87114117 -0.03699608 27.93554721 -0.02051173 31 0 C30.43412622 3.51094606 29.56945778 6.14229117 27.76953125 9.203125 C27.30353516 10.00556641 26.83753906 10.80800781 26.35742188 11.63476562 C25.84759766 12.49779297 25.33777344 13.36082031 24.8125 14.25 C23.71368935 16.13995431 22.61608326 18.03060933 21.51953125 19.921875 C20.65448975 21.40977539 20.65448975 21.40977539 19.77197266 22.92773438 C16.79517233 28.08894343 13.9004034 33.29560172 11 38.5 C5.26086249 48.77230389 -0.53603291 59.00927651 -6.39892578 69.21142578 C-8.13282978 72.23134825 -9.86120306 75.25440575 -11.58984375 78.27734375 C-32.7596631 115.22474788 -54.48576364 152.97553225 -84 184 C-85.19882812 185.31291016 -85.19882812 185.31291016 -86.421875 186.65234375 C-97.85618509 198.77794383 -112.25133628 207.49387099 -129.23388672 208.07666016 C-131.490217 208.09756561 -133.74373704 208.08791717 -136 208.0625 C-137.16208984 208.05573242 -137.16208984 208.05573242 -138.34765625 208.04882812 C-140.23180524 208.03719758 -142.11591365 208.01926906 -144 208 C-144 207.67 -144 207.34 -144 207 C-138.72 207 -133.44 207 -128 207 C-127.67 206.01 -127.34 205.02 -127 204 C-124.296875 202.4921875 -124.296875 202.4921875 -120.75 200.875 C-115.49129846 198.36825437 -110.5219091 195.63024159 -105.6875 192.375 C-104.61886719 191.66085938 -103.55023438 190.94671875 -102.44921875 190.2109375 C-99.6592596 187.69240978 -99.44926972 186.61749643 -99 183 C-97.84375 181.3046875 -97.84375 181.3046875 -96.5 179.875 C-93.8549648 177.20469201 -93.8549648 177.20469201 -93 174 C-92.34 174 -91.68 174 -91 174 C-90.01 171.03 -90.01 171.03 -89 168 C-88.34 168 -87.68 168 -87 168 C-87 167.01 -87 166.02 -87 165 C-86.34 165 -85.68 165 -85 165 C-84.67 163.35 -84.34 161.7 -84 160 C-83.34 160 -82.68 160 -82 160 C-81.89921143 159.30422852 -81.79842285 158.60845703 -81.69458008 157.89160156 C-80.877314 154.48924677 -79.52419181 151.82861874 -77.88671875 148.734375 C-77.21912303 147.45997868 -76.55156299 146.18556367 -75.8840332 144.91113281 C-75.52733551 144.23586548 -75.17063782 143.56059814 -74.8031311 142.86486816 C-67.55112137 129.11745249 -60.60580961 115.22895627 -53.8125 101.25 C-53.3880661 100.37744568 -52.9636322 99.50489136 -52.52633667 98.605896 C-48.38828051 90.09502828 -44.2691897 81.5752404 -40.18359375 73.0390625 C-29.93793528 51.64149827 -19.48004661 30.28571164 -7.6875 9.6875 C-7.24962158 8.91712402 -6.81174316 8.14674805 -6.3605957 7.35302734 C-4.46397742 4.11216714 -3.16957527 2.11305018 0 0 Z " fill="#91CBEA" transform="translate(554,34)"/>
<path d="M0 0 C1 2 1 2 0.30664062 4.34057617 C-0.07298828 5.31486572 -0.45261719 6.28915527 -0.84375 7.29296875 C-1.26237305 8.38673828 -1.68099609 9.48050781 -2.11230469 10.60742188 C-2.57024414 11.78884766 -3.02818359 12.97027344 -3.5 14.1875 C-7.89987959 25.78298393 -11.72049815 37.44869827 -15.21191406 49.34814453 C-16.46396744 53.56121883 -17.79224379 57.74938612 -19.125 61.9375 C-19.61721178 63.48957563 -20.10939986 65.04165878 -20.6015625 66.59375 C-20.83649414 67.33367187 -21.07142578 68.07359375 -21.31347656 68.8359375 C-22.38113372 72.20141157 -23.44325132 75.56858522 -24.5 78.9375 C-24.70141602 79.5783252 -24.90283203 80.21915039 -25.11035156 80.87939453 C-26.24190147 84.50089223 -27.33667979 88.13083665 -28.3984375 91.7734375 C-36.16695305 118.38495664 -44.34662149 143.51810114 -70.140625 157.73046875 C-81.36186677 163.21911962 -92.59541616 165.35183256 -105 166 C-104.47054302 160.23809149 -102.16482605 155.82997946 -99.5625 150.76953125 C-98.90229858 149.46117561 -98.90229858 149.46117561 -98.22875977 148.12638855 C-96.82671017 145.3511984 -95.41383518 142.58170168 -94 139.8125 C-92.58827244 137.03156969 -91.17881329 134.24951175 -89.77124023 131.46647644 C-88.8960282 129.73773041 -88.01802648 128.0103933 -87.13696289 126.28462219 C-86.73985107 125.50338486 -86.34273926 124.72214752 -85.93359375 123.91723633 C-85.4085022 122.88848137 -85.4085022 122.88848137 -84.87280273 121.83894348 C-83.88129747 119.84571123 -83.88129747 119.84571123 -83 117 C-82.34 117 -81.68 117 -81 117 C-80.90203125 116.48179687 -80.8040625 115.96359375 -80.703125 115.4296875 C-71.41670333 83.33994149 -43.95952815 49.48809713 -23 24 C-22.51821289 23.40993164 -22.03642578 22.81986328 -21.54003906 22.21191406 C-14.8945306 14.11364643 -7.97172745 6.81049156 0 0 Z " fill="#2395D6" transform="translate(211,80)"/>
<path d="M0 0 C1.27875 -0.061875 2.5575 -0.12375 3.875 -0.1875 C4.95394531 -0.23970703 4.95394531 -0.23970703 6.0546875 -0.29296875 C6.69664062 -0.19628906 7.33859375 -0.09960938 8 0 C8.66 0.99 9.32 1.98 10 3 C11.94339157 4.22897235 11.94339157 4.22897235 14.1875 5.3125 C34.7064552 16.43920617 43.97090454 40.99416316 51 62 C51.28584961 62.8465918 51.57169922 63.69318359 51.86621094 64.56542969 C55.58113446 75.65221928 58.86665601 86.84356523 61.9375 98.125 C62.24429688 99.24592041 62.55109375 100.36684082 62.8671875 101.52172852 C63.14691406 102.56901123 63.42664063 103.61629395 63.71484375 104.6953125 C63.96355225 105.62359863 64.21226074 106.55188477 64.46850586 107.50830078 C65 110 65 110 65 114 C65.66 114.33 66.32 114.66 67 115 C66.505 116.485 66.505 116.485 66 118 C66.66 118.33 67.32 118.66 68 119 C67.505 120.485 67.505 120.485 67 122 C67.66 122.33 68.32 122.66 69 123 C68.505 124.485 68.505 124.485 68 126 C68.66 126.33 69.32 126.66 70 127 C69.67 127.99 69.34 128.98 69 130 C69.66 130.33 70.32 130.66 71 131 C71.39465208 133.58317727 71.50806152 136.14188281 71.65625 138.75 C71.7696875 139.4925 71.883125 140.235 72 141 C72.66 141.33 73.32 141.66 74 142 C74.59765625 143.99609375 74.59765625 143.99609375 75.0625 146.4375 C75.7144301 149.82474047 75.7144301 149.82474047 77 153 C76.67 153.66 76.34 154.32 76 155 C76.66 155.33 77.32 155.66 78 156 C78.3911938 158.06265822 78.50674519 160.09443267 78.65625 162.1875 C78.82640625 163.0846875 78.82640625 163.0846875 79 164 C79.66 164.33 80.32 164.66 81 165 C80.67 165.66 80.34 166.32 80 167 C80.66 167.33 81.32 167.66 82 168 C82.6328125 169.84765625 82.6328125 169.84765625 83.125 172.0625 C83.29257812 172.79597656 83.46015625 173.52945313 83.6328125 174.28515625 C83.75398438 174.85105469 83.87515625 175.41695312 84 176 C85.65 175.67 87.3 175.34 89 175 C86.14723863 177.93200474 83.34920216 180.64315404 80 183 C68.71201077 178.17941995 62.274893 159.62692343 57.8828125 149.04296875 C48.92465883 126.35563243 42.03478811 102.77670144 34.57470703 79.56689453 C30.10372315 65.67028475 25.43229899 52.12227646 19 39 C18.68208496 38.33581055 18.36416992 37.67162109 18.03662109 36.98730469 C11.61847861 23.68211433 3.90995381 12.80090826 -9 5 C-6.23776722 2.23776722 -3.79293383 2.42143709 0 2 C0 1.34 0 0.68 0 0 Z " fill="#289EDD" transform="translate(296,38)"/>
<path d="M0 0 C1.09848267 0.00141495 2.19696533 0.0028299 3.32873535 0.00428772 C6.81293543 0.00985368 10.29706958 0.02239986 13.78125 0.03515625 C16.1536449 0.04017565 18.52604082 0.04473779 20.8984375 0.04882812 C26.69273056 0.05981195 32.48698557 0.07651595 38.28125 0.09765625 C37.95125 0.75765625 37.62125 1.41765625 37.28125 2.09765625 C21.77125 1.76765625 6.26125 1.43765625 -9.71875 1.09765625 C-10.37875 3.07765625 -11.03875 5.05765625 -11.71875 7.09765625 C-12.5025 7.15953125 -13.28625 7.22140625 -14.09375 7.28515625 C-18.3323158 8.23517962 -21.64974091 9.97882336 -25.44921875 12.0390625 C-27.71875 13.09765625 -27.71875 13.09765625 -30.71875 13.09765625 C-30.71875 13.75765625 -30.71875 14.41765625 -30.71875 15.09765625 C-31.70875 15.09765625 -32.69875 15.09765625 -33.71875 15.09765625 C-33.97527344 15.68933594 -34.23179687 16.28101562 -34.49609375 16.890625 C-35.83096253 19.30021241 -37.21935387 20.59818692 -39.28125 22.41015625 C-42.99330866 26.04122454 -45.72997322 29.87261025 -48.40625 34.28515625 C-48.76211182 34.85983643 -49.11797363 35.4345166 -49.48461914 36.02661133 C-55.37121327 46.04672161 -58.6060635 57.51065818 -61.96875 68.5625 C-62.55057117 70.45164063 -63.13239587 72.34078017 -63.7144165 74.22985935 C-64.5172571 76.83935628 -65.31608117 79.45007461 -66.11474609 82.06085205 C-67.51131403 86.62580586 -68.91055442 91.18993023 -70.31542969 95.75233459 C-71.05880599 98.16790435 -71.799265 100.58437476 -72.53613281 103.00193787 C-80.11784623 127.65682876 -80.11784623 127.65682876 -85.84375 134.16015625 C-86.31820557 134.73048584 -86.79266113 135.30081543 -87.28149414 135.88842773 C-88.26287475 137.0630738 -89.25282397 138.23061737 -90.25146484 139.390625 C-91.67511915 141.04689636 -93.06944436 142.72361975 -94.45703125 144.41015625 C-99.22437336 150.17335082 -104.16657943 155.77041432 -109.21875 161.28515625 C-109.7233374 161.83824463 -110.2279248 162.39133301 -110.74780273 162.96118164 C-112.96905735 165.35947368 -114.98385778 167.27439477 -117.71875 169.09765625 C-116.9477711 165.69965694 -115.82982197 162.4897148 -114.64453125 159.21484375 C-114.22703613 158.05605713 -113.80954102 156.89727051 -113.37939453 155.70336914 C-112.71206299 153.85666626 -112.71206299 153.85666626 -112.03125 151.97265625 C-105.62876804 134.16848236 -99.66215901 116.28828539 -94.40405273 98.10986328 C-73.22433813 25.01466923 -73.22433813 25.01466923 -47.71875 10.09765625 C-32.53853943 2.35265086 -16.84698239 -0.08262276 0 0 Z " fill="#69C3EE" transform="translate(514.71875,32.90234375)"/>
<path d="M0 0 C0.99 0.66 1.98 1.32 3 2 C3 2.99 3 3.98 3 5 C3.66 5 4.32 5 5 5 C18.84264254 28.63948859 28.52473248 53.41838623 38.12255859 79 C51.91515881 116.57002786 51.91515881 116.57002786 72 151 C72.64195312 151.91652344 73.28390625 152.83304688 73.9453125 153.77734375 C79.66292894 161.47413511 86.89407037 167.71858392 96 171 C89.48710321 175.34193119 83.43401835 175.27341981 76 174 C76 173.34 76 172.68 76 172 C74.14375 171.62875 74.14375 171.62875 72.25 171.25 C68.40627606 170.28400259 66.56853795 169.0999596 64 166 C63.22914063 165.24589844 62.45828125 164.49179688 61.6640625 163.71484375 C45.98056862 147.73239764 37.06399868 125.51216096 30.3125 104.5 C29.80699497 102.95765001 29.30062254 101.41558408 28.79345703 99.8737793 C26.02185889 91.41329001 23.34136222 82.92505164 20.69140625 74.42578125 C10.52432997 41.15240144 10.52432997 41.15240144 -4.04321289 9.63989258 C-5 7 -5 7 -4.26342773 4.76049805 C-2.97946287 2.97138295 -1.62829415 1.48026741 0 0 Z " fill="#22A9E6" transform="translate(251,65)"/>
<path d="M0 0 C-0.53931395 7.25077638 -2.21453299 13.61369161 -4.5 20.5 C-4.85602295 21.58732422 -5.2120459 22.67464844 -5.57885742 23.79492188 C-6.70398905 27.20194498 -7.84788256 30.6020138 -9 34 C-9.35658691 35.05445313 -9.71317383 36.10890625 -10.08056641 37.1953125 C-17.84923889 59.95584721 -27.5994995 81.63947945 -38.49291992 103.05200195 C-39.06502197 104.17695068 -39.63712402 105.30189941 -40.2265625 106.4609375 C-40.73783691 107.45915527 -41.24911133 108.45737305 -41.77587891 109.48583984 C-43.08333989 112.0317242 -43.08333989 112.0317242 -44 115 C-44.66 115 -45.32 115 -46 115 C-46.17402344 115.91394531 -46.34804688 116.82789063 -46.52734375 117.76953125 C-48.23874665 123.73024423 -52.0982981 128.62775609 -55.5625 133.6875 C-56.65449707 135.29987549 -56.65449707 135.29987549 -57.76855469 136.94482422 C-68.05736271 152.06124565 -79.17143705 166.20520581 -91.9375 179.3125 C-92.46891602 179.86993896 -93.00033203 180.42737793 -93.54785156 181.00170898 C-96.55008443 184.01772664 -98.68668192 185.70609066 -103 186 C-101.880462 183.48103951 -100.68018448 181.60265345 -98.9375 179.4375 C-96.83615651 177.07973981 -96.83615651 177.07973981 -96 174 C-95.34 174 -94.68 174 -94 174 C-93.34 172.02 -92.68 170.04 -92 168 C-91.34 168 -90.68 168 -90 168 C-90 167.01 -90 166.02 -90 165 C-89.34 165 -88.68 165 -88 165 C-87.67 163.35 -87.34 161.7 -87 160 C-86.34 160 -85.68 160 -85 160 C-84.84881714 158.95634277 -84.84881714 158.95634277 -84.69458008 157.89160156 C-83.877314 154.48924677 -82.52419181 151.82861874 -80.88671875 148.734375 C-80.21912303 147.45997868 -79.55156299 146.18556367 -78.8840332 144.91113281 C-78.52733551 144.23586548 -78.17063782 143.56059814 -77.8031311 142.86486816 C-70.55112137 129.11745249 -63.60580961 115.22895627 -56.8125 101.25 C-56.3880661 100.37744568 -55.9636322 99.50489136 -55.52633667 98.605896 C-51.38828051 90.09502828 -47.2691897 81.5752404 -43.18359375 73.0390625 C-32.93793528 51.64149827 -22.48004661 30.28571164 -10.6875 9.6875 C-10.24962158 8.91712402 -9.81174316 8.14674805 -9.3605957 7.35302734 C-5.05745234 0 -5.05745234 0 0 0 Z " fill="#76BEE8" transform="translate(557,34)"/>
<path d="M0 0 C1.24523437 0.01804688 2.49046875 0.03609375 3.7734375 0.0546875 C5.18496094 0.08949219 5.18496094 0.08949219 6.625 0.125 C6.625 0.455 6.625 0.785 6.625 1.125 C5.78839844 1.27195313 4.95179688 1.41890625 4.08984375 1.5703125 C-7.42618438 3.78934782 -18.80577117 7.07623769 -28.375 14.125 C-28.705 14.785 -29.035 15.445 -29.375 16.125 C-30.86 16.62 -30.86 16.62 -32.375 17.125 C-32.849375 17.764375 -33.32375 18.40375 -33.8125 19.0625 C-35.375 21.125 -35.375 21.125 -37.265625 22.01953125 C-39.72686889 23.30940536 -40.94181275 24.72517991 -42.6875 26.875 C-45.00978719 29.63677379 -47.32675607 32.03485959 -50.125 34.3125 C-52.95322534 36.62190101 -54.58367181 38.91946535 -56.375 42.125 C-57.035 42.125 -57.695 42.125 -58.375 42.125 C-58.43945312 42.64964844 -58.50390625 43.17429688 -58.5703125 43.71484375 C-59.73888604 47.21489169 -62.01114929 49.81017493 -64.25 52.6875 C-74.35263598 66.0817633 -82.23796608 80.97573918 -89.375 96.125 C-89.70064941 96.81352051 -90.02629883 97.50204102 -90.36181641 98.21142578 C-97.51382646 113.46741992 -103.65369977 129.11681457 -107.81347656 145.45825195 C-111.12038152 158.36254322 -116.09314053 169.05627196 -122.85400391 180.49511719 C-125.77885296 185.55233612 -128.40560244 190.76855082 -131.07739258 195.96240234 C-132.15321609 198.03028471 -133.2567891 200.07979643 -134.375 202.125 C-134.69082031 202.73859375 -135.00664062 203.3521875 -135.33203125 203.984375 C-136.28125 205.65625 -136.28125 205.65625 -138.375 208.125 C-141.625 208.5 -141.625 208.5 -144.375 208.125 C-139.01375545 185.76533875 -132.35322431 163.26922987 -123.23242188 142.11962891 C-122.18550024 139.68416484 -121.16484681 137.238064 -120.140625 134.79296875 C-115.1645849 123.02408277 -109.77207684 111.60736855 -103.625 100.40576172 C-102.36210948 98.10147983 -101.11778672 95.78783197 -99.875 93.47265625 C-94.55871259 83.64438293 -88.82252417 74.25055725 -82.375 65.125 C-81.84358398 64.37041504 -81.31216797 63.61583008 -80.76464844 62.83837891 C-73.72093518 52.90034715 -66.47019619 43.41095529 -57.92871094 34.71386719 C-56.26928526 33.01689322 -54.63893533 31.29448284 -53.0078125 29.5703125 C-39.46749728 15.43221182 -20.6559491 -0.38973489 0 0 Z " fill="#8CD3F3" transform="translate(196.375,37.875)"/>
<path d="M0 0 C-0.55878852 4.91103618 -2.14210786 8.85595895 -4.359375 13.21484375 C-4.70011047 13.89894821 -5.04084595 14.58305267 -5.39190674 15.28788757 C-6.50232344 17.50905021 -7.62534 19.7235193 -8.75 21.9375 C-9.1320459 22.69577087 -9.5140918 23.45404175 -9.90771484 24.23529053 C-16.12531261 36.57451539 -22.67497059 48.67175916 -29.62451172 60.61621094 C-31.2831837 63.49077133 -32.8860778 66.39369229 -34.48632812 69.30102539 C-42.456094 83.73447388 -51.44784115 97.56849501 -61 111 C-61.54914063 111.77472656 -62.09828125 112.54945313 -62.6640625 113.34765625 C-63.77057763 114.90234092 -64.88405207 116.45207223 -66 118 C-67.30903843 115.38192314 -66.7560487 114.61579266 -65.86352539 111.87109375 C-65.5886731 111.01329819 -65.3138208 110.15550262 -65.03063965 109.27171326 C-64.72275513 108.33642288 -64.41487061 107.40113251 -64.09765625 106.4375 C-63.78485718 105.46680069 -63.47205811 104.49610138 -63.14978027 103.49598694 C-62.12762607 100.32836512 -61.09533866 97.16415256 -60.0625 94 C-58.66377462 89.68713165 -57.26915209 85.37294228 -55.875 81.05859375 C-55.53271866 80.00175888 -55.19043732 78.94492401 -54.83778381 77.85606384 C-52.6234987 70.99941593 -50.51553108 64.12290657 -48.48779297 57.20874023 C-43.36936624 39.80473884 -36.74208535 25.08049799 -23.3828125 12.41015625 C-21.88627875 11.02832853 -21.88627875 11.02832853 -21 9 C-20.01 9 -19.02 9 -18 9 C-18 8.34 -18 7.68 -18 7 C-15.56568361 5.82625827 -13.12795818 4.66084237 -10.6875 3.5 C-9.65206055 2.99919922 -9.65206055 2.99919922 -8.59570312 2.48828125 C-3.33984375 0 -3.33984375 0 0 0 Z " fill="#089BDD" transform="translate(502,39)"/>
<path d="M0 0 C5.80917056 3.56246143 9.06473423 8.44163412 10.921875 14.8984375 C12.7547165 23.70163075 11.33760119 29.7910827 7.23828125 37.74609375 C4.21078403 42.16584566 0.57359126 44.86527746 -4.5625 46.375 C-12.19924642 47.18741983 -19.72314951 47.69531921 -26.0546875 42.7890625 C-32.41273372 36.82633522 -34.69961808 30.56804527 -35.0625 22 C-34.85643608 14.59028502 -33.00646869 8.65816081 -27.5546875 3.4609375 C-19.87065257 -2.52183508 -9.10458114 -4.20345604 0 0 Z " fill="#080808" transform="translate(316.5625,304.625)"/>
<path d="M0 0 C4.82664704 2.914592 8.27773035 7.16775877 10.4375 12.375 C12.04069081 21.23770973 12.15348577 29.47668236 7.4375 37.375 C3.16043186 42.22059458 -1.41643401 46.0306725 -7.953125 46.74609375 C-15.63846557 46.87833139 -21.67572308 46.8957597 -27.5625 41.375 C-33.08989019 35.84760981 -34.74090049 29.59332186 -35.0625 22 C-34.85643608 14.59028502 -33.00646869 8.65816081 -27.5546875 3.4609375 C-19.87065257 -2.52183508 -9.10458114 -4.20345604 0 0 Z " fill="#070707" transform="translate(406.5625,304.625)"/>
<path d="M0 0 C1.19211728 3.57635183 0.7621204 4.17940864 -0.625 7.5625 C-2.58205592 12.64409693 -4.09116992 17.74821271 -5.5 23 C-7.0751064 28.83160121 -8.82313094 34.48201008 -10.98046875 40.12890625 C-12.2516599 43.70869742 -13.27560392 47.34763723 -14.3125 51 C-21.44323463 75.60379833 -30.58384795 97.75080179 -54.140625 110.73046875 C-63.30132269 115.21124479 -72.7244407 118.27564839 -83 118 C-80.6207765 116.413851 -78.33848129 115.12243366 -75.8125 113.8125 C-60.88366212 105.41955075 -54.33041518 90.85553879 -46.79174805 76.16064453 C-33.17878804 49.7627271 -17.34144196 24.11925907 0 0 Z " fill="#1DAAE8" transform="translate(195,127)"/>
<path d="M0 0 C3.3 0 6.6 0 10 0 C14.62862899 8.89622492 18.59823068 18.05657944 22.58544922 27.25219727 C23.75828479 29.95660364 24.93546332 32.65908844 26.11328125 35.36132812 C26.86223145 37.08322362 27.61093827 38.805225 28.359375 40.52734375 C28.71038269 41.33356674 29.06139038 42.13978973 29.42303467 42.97044373 C29.74717346 43.71874954 30.07131226 44.46705536 30.40527344 45.23803711 C30.68997498 45.89404404 30.97467651 46.55005096 31.26800537 47.22593689 C31.91368503 48.79080692 32.46467576 50.39402727 33 52 C33.44279297 50.99324219 33.88558594 49.98648438 34.34179688 48.94921875 C36.02268152 45.13038495 37.7088711 41.31391134 39.39648438 37.49804688 C40.11923494 35.86194427 40.84064052 34.22524671 41.56054688 32.58789062 C46.40889821 21.56398563 51.50778114 10.71832753 57 0 C59.97 0 62.94 0 66 0 C66 21.45 66 42.9 66 65 C63.69 65 61.38 65 59 65 C58.67 48.17 58.34 31.34 58 14 C52.29850264 27.04146297 52.29850264 27.04146297 46.6027832 40.08544922 C45.87732187 41.74195221 45.15166694 43.39837043 44.42578125 45.0546875 C44.06270874 45.8887915 43.69963623 46.72289551 43.32556152 47.58227539 C40.73444443 53.48545636 37.93092784 59.25827408 35 65 C33.68 65 32.36 65 31 65 C29.32761016 61.43541826 27.65970239 57.86877028 25.99511719 54.30053711 C25.16551342 52.52424464 24.33283514 50.74938907 23.5 48.97460938 C18.1055569 37.40164714 13.09781671 25.72497842 8 14 C7.67 30.83 7.34 47.66 7 65 C4.69 65 2.38 65 0 65 C0 43.55 0 22.1 0 0 Z " fill="#040404" transform="translate(107,285)"/>
<path d="M0 0 C0.24645264 0.64026123 0.49290527 1.28052246 0.74682617 1.94018555 C1.88014802 4.86143171 3.03357225 7.77433532 4.1875 10.6875 C4.57486328 11.69490234 4.96222656 12.70230469 5.36132812 13.74023438 C7.54208944 19.20114906 9.41056572 23.12813199 14 27 C15.07865791 28.21501196 16.14379769 29.44233237 17.1875 30.6875 C18.74549356 32.54147123 20.2852718 34.2852718 22 36 C18.30148687 37.23283771 14.89068897 37.13161347 11.0402832 37.11352539 C9.82530655 37.11374443 9.82530655 37.11374443 8.58578491 37.1139679 C5.90742315 37.113271 3.22913087 37.10548903 0.55078125 37.09765625 C-1.30581118 37.09579128 -3.1624041 37.09436775 -5.01899719 37.09336853 C-9.90655881 37.0895496 -14.79409074 37.07972461 -19.68164062 37.06866455 C-24.66861571 37.05843704 -29.65559558 37.05386803 -34.64257812 37.04882812 C-44.42839847 37.03810181 -54.21419676 37.02103284 -64 37 C-60.73533798 35.2820786 -57.90124236 34.48354039 -54.25 33.875 C-52.77273438 33.62363281 -52.77273438 33.62363281 -51.265625 33.3671875 C-50.51796875 33.24601562 -49.7703125 33.12484375 -49 33 C-49 32.34 -49 31.68 -49 31 C-48.443125 30.75765625 -47.88625 30.5153125 -47.3125 30.265625 C-33.72609348 24.6181092 -33.72609348 24.6181092 -22 16 C-20.66944437 15.32780662 -19.33578426 14.66174211 -18 14 C-12.50970796 10.27795311 -7.83024492 6.03989269 -3.3125 1.1875 C-2 0 -2 0 0 0 Z " fill="#1F6CBC" transform="translate(396,204)"/>
<path d="M0 0 C0.99 0.495 0.99 0.495 2 1 C1.32195312 1.46148437 0.64390625 1.92296875 -0.0546875 2.3984375 C-18.45812481 15.29613733 -29.8564709 32.8824709 -41 52 C-41.58418701 53.00063477 -41.58418701 53.00063477 -42.18017578 54.02148438 C-54.83570117 75.88448912 -65.9016972 98.72212335 -77.15625 121.32714844 C-80.62895463 128.29085649 -84.14280924 135.22989776 -87.75 142.125 C-88.15661865 142.9072998 -88.5632373 143.68959961 -88.98217773 144.49560547 C-91.7572573 149.7572573 -91.7572573 149.7572573 -94 152 C-88.77803187 127.37593792 -79.91580784 103.02835398 -67.99023438 80.85839844 C-66.91926614 78.84848468 -65.88782659 76.82103912 -64.859375 74.7890625 C-58.48829659 62.30909575 -51.19995672 50.56747686 -42.27734375 39.734375 C-40.8009796 37.91620164 -40.8009796 37.91620164 -40 35 C-39.01 34.34 -38.02 33.68 -37 33 C-36.4121875 31.9171875 -36.4121875 31.9171875 -35.8125 30.8125 C-33.654734 27.46424241 -31.09135726 25.38291333 -28.05859375 22.83984375 C-25.54647301 20.59466563 -23.48686133 18.13458354 -21.421875 15.48046875 C-20 14 -20 14 -17.953125 12.98828125 C-15.66617545 12.03223686 -15.66617545 12.03223686 -14 9 C-13.01 9 -12.02 9 -11 9 C-10.67 8.01 -10.34 7.02 -10 6 C-7.78515625 4.359375 -7.78515625 4.359375 -5.0625 2.75 C-4.16660156 2.20859375 -3.27070313 1.6671875 -2.34765625 1.109375 C-1.57292969 0.74328125 -0.79820312 0.3771875 0 0 Z " fill="#3C9EDC" transform="translate(178,45)"/>
<path d="M0 0 C5.21440424 1.77092974 7.32620669 4.24658968 10 9 C11.95526922 14.86580767 11.76503887 21.56885209 9.8125 27.4375 C7.40116884 32.17701297 5.01981086 34.32672971 0 36 C-6.31844689 36.41432439 -10.46848189 36.01902867 -15.48046875 31.734375 C-19.84906724 26.88853466 -19.60173497 21.59011737 -19.35546875 15.3203125 C-18.76054364 9.76331975 -17.64538835 6.52499408 -13.4375 2.625 C-8.89510351 -0.40326433 -5.37572511 -0.4895264 0 0 Z " fill="#FBFBFB" transform="translate(399,309)"/>
<path d="M0 0 C3.839124 2.79209018 6.07795707 5.53407337 7.75 10 C8.77197338 17.18273744 8.08405629 23.56182234 4.75 30 C0.96294637 33.69237729 -1.76362996 34.90253311 -7.0625 35.25 C-11.12306094 35.18294487 -13.81188674 34.2660292 -17.25 32 C-22.55592192 26.40727149 -22.54651437 21.43064389 -22.46484375 13.98046875 C-22.07917391 8.63017623 -20.70770369 5.35104245 -16.6875 1.625 C-11.33467563 -1.94354958 -6.10341779 -1.8779747 0 0 Z " fill="#FBFBFB" transform="translate(312.25,310)"/>
<path d="M0 0 C2 1 2 1 2.81640625 2.78515625 C3.599832 5.17645056 4.30872646 7.58054261 5 10 C5.25265625 10.66773437 5.5053125 11.33546875 5.765625 12.0234375 C6.42896369 14.34512293 6.57912594 15.63928817 6 18 C3.81966415 20.74492809 1.40969187 23.00891619 -1.1796875 25.37109375 C-4.74766804 28.69692603 -7.68566515 32.35457689 -10.72265625 36.16015625 C-13.07429638 39.09264745 -15.50100812 41.95028722 -17.9375 44.8125 C-23.3447987 51.27239688 -28.1933482 58.08660294 -33 65 C-34.3105 61.06850001 -33.37870669 59.43157818 -32.05078125 55.53125 C-31.83689255 54.8957019 -31.62300385 54.26015381 -31.40263367 53.60534668 C-30.71429815 51.56727898 -30.01346984 49.53375229 -29.3125 47.5 C-28.8592299 46.16172772 -28.40674767 44.82318832 -27.95507812 43.484375 C-25.40462462 35.95277853 -22.75776802 28.45839778 -20 21 C-21.32 21.99 -22.64 22.98 -24 24 C-22.60513088 20.81316625 -20.98872765 18.79256769 -18.4453125 16.43359375 C-17.74792969 15.78326172 -17.05054688 15.13292969 -16.33203125 14.46289062 C-15.60371094 13.79451172 -14.87539062 13.12613281 -14.125 12.4375 C-13.40441406 11.76525391 -12.68382812 11.09300781 -11.94140625 10.40039062 C-2.88199789 2 -2.88199789 2 0 2 C0 1.34 0 0.68 0 0 Z " fill="#49BDE6" transform="translate(231,60)"/>
<path d="M0 0 C1 2 1 2 0.1015625 5.10546875 C-0.38130414 6.46948139 -0.87439042 7.82989892 -1.375 9.1875 C-1.64538086 9.9314502 -1.91576172 10.67540039 -2.19433594 11.44189453 C-3.11913098 13.96523441 -4.0592745 16.48255902 -5 19 C-5.33354492 19.90669434 -5.66708984 20.81338867 -6.01074219 21.74755859 C-18.7875134 56.34284792 -18.7875134 56.34284792 -27 64 C-30 63 -30 63 -31.31640625 60.671875 C-31.93322266 59.22554687 -31.93322266 59.22554687 -32.5625 57.75 C-32.97628906 56.79609375 -33.39007813 55.8421875 -33.81640625 54.859375 C-34.20699219 53.91578125 -34.59757812 52.9721875 -35 52 C-35.40089844 51.15953125 -35.80179687 50.3190625 -36.21484375 49.453125 C-37.18777762 46.41331171 -37.10011049 44.99474521 -36 42 C-33.9609375 39.60546875 -33.9609375 39.60546875 -31.375 37.1875 C-24.48738654 30.55246475 -18.47660604 23.40255592 -12.4375 16 C-11.89504639 15.33532715 -11.35259277 14.6706543 -10.79370117 13.98583984 C-7.08102178 9.40677477 -3.50510561 4.73965281 0 0 Z " fill="#0A9AE0" transform="translate(433,160)"/>
<path d="M0 0 C0 1.98 0 3.96 0 6 C-1.06541016 6.18175781 -1.06541016 6.18175781 -2.15234375 6.3671875 C-3.07144531 6.53476562 -3.99054688 6.70234375 -4.9375 6.875 C-5.85402344 7.03742188 -6.77054687 7.19984375 -7.71484375 7.3671875 C-8.46894531 7.57601563 -9.22304688 7.78484375 -10 8 C-11.41634833 10.83269666 -11.3463005 13.47466438 -11.5625 16.625 C-11.64628906 17.81351562 -11.73007812 19.00203125 -11.81640625 20.2265625 C-11.90728516 21.59941406 -11.90728516 21.59941406 -12 23 C-8.37 23 -4.74 23 -1 23 C-1 24.98 -1 26.96 -1 29 C-4.63 29 -8.26 29 -12 29 C-12 42.2 -12 55.4 -12 69 C-14.64 69 -17.28 69 -20 69 C-20 55.8 -20 42.6 -20 29 C-22.64 29 -25.28 29 -28 29 C-28 27.02 -28 25.04 -28 23 C-25.36 23 -22.72 23 -20 23 C-20.03480469 22.20335937 -20.06960938 21.40671875 -20.10546875 20.5859375 C-20.30778937 12.66653046 -19.81558957 8.237928 -14.5 2.125 C-10.27724919 -1.22962184 -5.10166616 -0.4084964 0 0 Z " fill="#0C0C0C" transform="translate(450,281)"/>
<path d="M0 0 C1.1240625 -0.00515625 2.248125 -0.0103125 3.40625 -0.015625 C6.35041743 0.23715705 8.01695505 0.71635459 10.5 2.25 C10.5 4.56 10.5 6.87 10.5 9.25 C9.51 8.92 8.52 8.59 7.5 8.25 C3.36257729 7.0726846 -0.20580343 6.96372023 -4.5 7.25 C-7.84703258 8.97438077 -7.84703258 8.97438077 -8.1875 12.5625 C-7.89476924 16.17078447 -7.89476924 16.17078447 -5.953125 17.6796875 C-3.84895062 18.99275756 -1.71897155 20.14245728 0.5 21.25 C9.03484692 25.71411833 9.03484692 25.71411833 11.5 30.25 C12.2338874 34.38330922 12.43301366 38.30853753 10.58203125 42.16015625 C7.75468213 45.88420509 4.88784998 47.08414614 0.5 48.25 C-2.7890625 48.515625 -2.7890625 48.515625 -6.125 48.5 C-7.23101562 48.50515625 -8.33703125 48.5103125 -9.4765625 48.515625 C-12.38066911 48.26048385 -14.04484843 47.75901999 -16.5 46.25 C-16.5 43.61 -16.5 40.97 -16.5 38.25 C-15.55125 38.745 -14.6025 39.24 -13.625 39.75 C-8.17262638 42.10898614 -2.09808214 42.11602738 3.5 40.25 C3.91771804 36.91799815 3.91771804 36.91799815 3.5 33.25 C-0.00323286 29.26356261 -5.28588267 27.17711668 -9.9765625 24.8125 C-13.67335279 22.52346576 -15.13682613 20.33952161 -16.5 16.25 C-16.96345203 12.8072135 -17.16939925 10.33368543 -15.30078125 7.30859375 C-10.67586535 1.72840555 -7.36491512 -0.03378401 0 0 Z " fill="#080808" transform="translate(352.5,302.75)"/>
<path d="M0 0 C0.50917969 0.32226562 1.01835937 0.64453125 1.54296875 0.9765625 C1.54296875 3.2865625 1.54296875 5.5965625 1.54296875 7.9765625 C0.57359375 7.6465625 -0.39578125 7.3165625 -1.39453125 6.9765625 C-7.1638916 5.36487884 -12.27750773 4.94848537 -17.76953125 7.5390625 C-21.79850094 11.19324432 -24.09972325 14.25058346 -24.8046875 19.62890625 C-24.98946041 25.48540402 -24.4516893 29.91662303 -21.45703125 34.9765625 C-16.81403189 39.2798302 -13.99458815 40.1942005 -7.85546875 40.14453125 C-4.49198884 39.9089781 -1.64263714 39.06102408 1.54296875 37.9765625 C1.85546875 40.7890625 1.85546875 40.7890625 1.54296875 43.9765625 C-3.37795213 47.95617086 -8.74682158 47.60834084 -14.78515625 47.37890625 C-21.02568026 46.69510415 -24.30062618 44.60319687 -28.23046875 39.81640625 C-33.13763073 32.91642966 -34.35711244 26.37732029 -33.45703125 17.9765625 C-31.3015967 10.66682795 -27.42188795 5.42579195 -21.58203125 0.6015625 C-15.8645988 -2.44097361 -5.86579976 -2.4433061 0 0 Z " fill="#080808" transform="translate(241.45703125,304.0234375)"/>
<path d="M0 0 C0 4.62 0 9.24 0 14 C3.96 14 7.92 14 12 14 C12 15.98 12 17.96 12 20 C8.04 20 4.08 20 0 20 C0.0688642 24.3605117 0.15682189 28.72009398 0.26245117 33.07983398 C0.29569423 34.56279854 0.32372823 36.04588944 0.34643555 37.52905273 C0.37999468 39.66184293 0.43230638 41.79347612 0.48828125 43.92578125 C0.51446533 45.20880127 0.54064941 46.49182129 0.56762695 47.8137207 C0.73741295 50.96050728 0.73741295 50.96050728 2.40429688 52.92382812 C4.46186131 54.31148786 5.72872091 54.30842356 8.1875 54.1875 C9.445625 54.125625 10.70375 54.06375 12 54 C12.04254356 55.99954746 12.04080783 58.00041636 12 60 C10.20690039 61.79309961 7.67624022 61.29807043 5.25 61.375 C0.81173624 61.35389054 -0.53608654 61.34566101 -4.1875 58.625 C-7.11583474 54.38396349 -7.13303435 51.39419173 -7.09765625 46.3671875 C-7.0962413 45.61535187 -7.09482635 44.86351624 -7.09336853 44.08889771 C-7.08776465 41.6842249 -7.07521157 39.27964473 -7.0625 36.875 C-7.0574855 35.24609509 -7.0529225 33.61718873 -7.04882812 31.98828125 C-7.03779397 27.99215173 -7.02052679 23.99609158 -7 20 C-9.64 20 -12.28 20 -15 20 C-15 18.02 -15 16.04 -15 14 C-12.36 14 -9.72 14 -7 14 C-7 10.04 -7 6.08 -7 2 C-2 0 -2 0 0 0 Z " fill="#030303" transform="translate(468,290)"/>
<path d="M0 0 C26.07 0 52.14 0 79 0 C79 0.33 79 0.66 79 1 C78.11441406 1.13535156 77.22882813 1.27070312 76.31640625 1.41015625 C60.05480111 4.23605433 46.4789545 10.57968473 33 20 C32.26910156 19.2575 31.53820312 18.515 30.78515625 17.75 C21.88377876 8.96098211 12.59920269 2.77059801 0 1 C0 0.67 0 0.34 0 0 Z " fill="#62C1EA" transform="translate(204,38)"/>
<path d="M0 0 C4.77655522 2.43510658 7.56489342 5.22344478 10 10 C10.62499339 14.37495374 10.34845954 16.375176 8.1875 20.25 C3.83505155 25.72164948 3.83505155 25.72164948 0 27 C-8.85285576 27.57115198 -8.85285576 27.57115198 -13 24 C-16.39453687 19.22929953 -17.87159882 15.99224187 -17 10 C-13.3405068 2.82176333 -8.21863374 -1.17409053 0 0 Z " fill="#060606" transform="translate(68,518)"/>
<path d="M0 0 C0 0.66 0 1.32 0 2 C-1.06541016 2.18175781 -1.06541016 2.18175781 -2.15234375 2.3671875 C-3.07144531 2.53476562 -3.99054688 2.70234375 -4.9375 2.875 C-5.85402344 3.03742187 -6.77054687 3.19984375 -7.71484375 3.3671875 C-8.46894531 3.57601562 -9.22304688 3.78484375 -10 4 C-10.33 4.66 -10.66 5.32 -11 6 C-13 6.33333333 -15 6.66666667 -17 7 C-17.33 7.66 -17.66 8.32 -18 9 C-19.37078861 9.71675221 -20.77357557 10.37261428 -22.1875 11 C-31.87699619 15.69878007 -40.73167145 22.44683784 -48.546875 29.8203125 C-50 31 -50 31 -52 31 C-53.28006797 29.21601386 -54.47660351 27.37146094 -55.625 25.5 C-56.25664062 24.4790625 -56.88828125 23.458125 -57.5390625 22.40625 C-58.02117187 21.6121875 -58.50328125 20.818125 -59 20 C-44.99533166 4.62568195 -19.81319461 -0.90211847 0 0 Z " fill="#15579B" transform="translate(296,38)"/>
<path d="M0 0 C2.97 7.26 5.94 14.52 9 22 C-0.70057928 30.97665545 -0.70057928 30.97665545 -5 32 C-7.02734375 31.05859375 -7.02734375 31.05859375 -8.9375 29.4375 C-9.61941406 28.87160156 -10.30132812 28.30570313 -11.00390625 27.72265625 C-11.66261719 27.15417969 -12.32132812 26.58570313 -13 26 C-13.58652344 25.54496094 -14.17304688 25.08992188 -14.77734375 24.62109375 C-17.73484074 22.31439072 -19.46861676 20.39194232 -21 17 C-20.26394531 16.40832031 -19.52789062 15.81664062 -18.76953125 15.20703125 C-17.79371094 14.41683594 -16.81789063 13.62664062 -15.8125 12.8125 C-14.36810547 11.64654297 -14.36810547 11.64654297 -12.89453125 10.45703125 C-9.48124298 7.5596516 -6.36138714 4.46223064 -3.3125 1.1875 C-2 0 -2 0 0 0 Z " fill="#185FAB" transform="translate(396,204)"/>
<path d="M0 0 C1.22589844 0.01353516 1.22589844 0.01353516 2.4765625 0.02734375 C3.41628906 0.04474609 3.41628906 0.04474609 4.375 0.0625 C4.375 2.7025 4.375 5.3425 4.375 8.0625 C3.71113281 7.99289062 3.04726563 7.92328125 2.36328125 7.8515625 C-2.76184057 7.40673081 -2.76184057 7.40673081 -7.3671875 9.2578125 C-11.53842313 14.16950416 -11.75073096 18.58630851 -11.94140625 24.796875 C-11.98330078 26.09238281 -12.02519531 27.38789063 -12.06835938 28.72265625 C-12.10816671 30.08593476 -12.14787906 31.44921606 -12.1875 32.8125 C-12.23072274 34.19141875 -12.27433821 35.57032526 -12.31835938 36.94921875 C-12.42443958 40.3202119 -12.5264985 43.69127826 -12.625 47.0625 C-15.265 47.0625 -17.905 47.0625 -20.625 47.0625 C-20.625 31.8825 -20.625 16.7025 -20.625 1.0625 C-17.985 1.0625 -15.345 1.0625 -12.625 1.0625 C-12.295 3.0425 -11.965 5.0225 -11.625 7.0625 C-10.84125 6.093125 -10.0575 5.12375 -9.25 4.125 C-6.34276518 0.52920957 -4.61628746 -0.06594696 0 0 Z " fill="#141414" transform="translate(274.625,302.9375)"/>
<path d="M0 0 C3.78580423 2.03850997 7.05061257 4.10122513 9 8 C9.53757839 12.76140861 9.48889026 15.00341602 7.375 19.3125 C4.66496599 22.37911743 2.89316622 23.72723412 -1 25 C-5.25969004 25.20084983 -8.2270868 24.4704689 -11.875 22.25 C-14.9488597 18.99532502 -15.81331392 16.46237431 -16.375 12.0625 C-15.77375256 7.15231255 -13.47795875 4.19834493 -9.6875 1.125 C-6.16108808 -0.35117243 -3.79611 -0.46618895 0 0 Z " fill="#999999" transform="translate(501,294)"/>
<path d="M0 0 C1.39445732 2.78891464 0.63642779 4.20709295 -0.109375 7.21484375 C-0.36831543 8.28557129 -0.62725586 9.35629883 -0.89404297 10.45947266 C-1.17650879 11.60722168 -1.45897461 12.7549707 -1.75 13.9375 C-4.38231587 24.92806581 -6.40197561 35.81382924 -8 47 C1.24 47 10.48 47 20 47 C20 47.33 20 47.66 20 48 C5.15 48 -9.7 48 -25 48 C-22.75330904 41.25992711 -22.75330904 41.25992711 -21.0390625 38.28515625 C-20.65548584 37.60960693 -20.27190918 36.93405762 -19.87670898 36.23803711 C-19.46364502 35.52010986 -19.05058105 34.80218262 -18.625 34.0625 C-13.8284747 25.59608972 -9.30583945 17.0027835 -4.84814453 8.35375977 C-4.36071777 7.41072998 -3.87329102 6.4677002 -3.37109375 5.49609375 C-2.7203186 4.23043579 -2.7203186 4.23043579 -2.05639648 2.93920898 C-1 1 -1 1 0 0 Z " fill="#19A3E3" transform="translate(83,199)"/>
<path d="M0 0 C2.64 0 5.28 0 8 0 C8 15.18 8 30.36 8 46 C5.36 46 2.72 46 0 46 C0 30.82 0 15.64 0 0 Z " fill="#0F0F0F" transform="translate(189,304)"/>
<path d="M0 0 C14.52 0 29.04 0 44 0 C43.67 0.99 43.34 1.98 43 3 C41.0390625 3.9140625 41.0390625 3.9140625 38.625 4.625 C37.83351562 4.86476563 37.04203125 5.10453125 36.2265625 5.3515625 C35.12441406 5.67253906 35.12441406 5.67253906 34 6 C30.89698316 6.64657009 30.89698316 6.64657009 30 8.9375 C29.67 9.618125 29.34 10.29875 29 11 C28.01 11.66 27.02 12.32 26 13 C25.39414063 12.54109375 24.78828125 12.0821875 24.1640625 11.609375 C16.72566492 6.16217924 9.31713227 1.98075077 0 1 C0 0.67 0 0.34 0 0 Z " fill="#5FC4EA" transform="translate(204,38)"/>
<path d="M0 0 C6.96777397 2.78710959 12.65282013 7.09644153 16 14 C15.34 14 14.68 14 14 14 C14 14.66 14 15.32 14 16 C13.01 16 12.02 16 11 16 C11 16.66 11 17.32 11 18 C9.20703125 19.55078125 9.20703125 19.55078125 6.8125 21.3125 C3.23666547 24.00847619 0.06234786 26.74008131 -3 30 C-3.66 29.67 -4.32 29.34 -5 29 C-3.73079864 26.6032896 -2.45969813 24.20761907 -1.1875 21.8125 C-0.83107422 21.13896484 -0.47464844 20.46542969 -0.10742188 19.77148438 C1.83496432 16.11837273 3.83011045 12.52521488 6 9 C4.02 6.03 2.04 3.06 0 0 Z " fill="#1583CA" transform="translate(220,44)"/>
<path d="M0 0 C1.32 0 2.64 0 4 0 C5.703125 1.8984375 5.703125 1.8984375 7.25 4.375 C7.77078125 5.18710937 8.2915625 5.99921875 8.828125 6.8359375 C10 9 10 9 10 11 C12.43929746 9.07423885 14.80090595 7.19909405 17 5 C17 8 17 8 15.3125 10 C12.99320787 12.00587427 10.63501661 13.44601585 8 15 C7.443125 15.556875 6.88625 16.11375 6.3125 16.6875 C5.6628125 17.3371875 5.6628125 17.3371875 5 18 C4.34 18 3.68 18 3 18 C2.10404387 15.94651665 1.23393124 13.88174343 0.375 11.8125 C-0.35589844 10.08966797 -0.35589844 10.08966797 -1.1015625 8.33203125 C-2.10322526 4.61716894 -1.82911911 3.30361309 0 0 Z " fill="#3078B4" transform="translate(234,58)"/>
<path d="M0 0 C0 4.95 0 9.9 0 15 C0.99 15 1.98 15 3 15 C3 13.02 3 11.04 3 9 C4.875 9.25 4.875 9.25 7 10 C7.69937532 11.31647119 8.36729133 12.65022151 9 14 C9.99 14.33 10.98 14.66 12 15 C12 15.66 12 16.32 12 17 C8.54260443 18.72869779 4.78024432 18.48966895 1 18 C-1.87029869 16.20606332 -3.49131638 15.01736724 -5 12 C-5.35145946 8.96362071 -5.421844 6.03061613 -5 3 C-2.18181818 0 -2.18181818 0 0 0 Z " fill="#F5F5F5" transform="translate(492,299)"/>
<path d="M0 0 C3 1 3 1 4.38671875 3.72265625 C5.59114583 6.81510417 6.79557292 9.90755208 8 13 C9.98 8.71 11.96 4.42 14 0 C14.99 0 15.98 0 17 0 C17 5.61 17 11.22 17 17 C16.34 17 15.68 17 15 17 C14.67 13.37 14.34 9.74 14 6 C12.35 9.63 10.7 13.26 9 17 C8.34 17 7.68 17 7 17 C5.68 14.03 4.36 11.06 3 8 C2.67 10.97 2.34 13.94 2 17 C1.34 17 0.68 17 0 17 C0 11.39 0 5.78 0 0 Z " fill="#313131" transform="translate(499,224)"/>
<path d="M0 0 C11.99892699 -0.68674304 20.84910125 1.68388522 31 8 C29.35 9.65 27.7 11.3 26 13 C25.39414063 12.54109375 24.78828125 12.0821875 24.1640625 11.609375 C16.72566492 6.16217924 9.31713227 1.98075077 0 1 C0 0.67 0 0.34 0 0 Z " fill="#80CBEB" transform="translate(204,38)"/>
<path d="M0 0 C7 0 7 0 9 1.1875 C10 3 10 3 9.6875 5.6875 C9.460625 6.450625 9.23375 7.21375 9 8 C8.34 8 7.68 8 7 8 C7.495 8.94875 7.99 9.8975 8.5 10.875 C10 14 10 14 10 16 C9.01 15.67 8.02 15.34 7 15 C6.33333333 13.66666667 5.66666667 12.33333333 5 11 C4.01 10.67 3.02 10.34 2 10 C2 11.98 2 13.96 2 16 C1.34 16 0.68 16 0 16 C0 10.72 0 5.44 0 0 Z " fill="#2E2E2E" transform="translate(493,298)"/>
<path d="M0 0 C33.66 0 67.32 0 102 0 C100.35 1.32 98.7 2.64 97 4 C96.01 3.34 95.02 2.68 94 2 C90.98102096 1.78604599 88.05130414 1.68866857 85.03051758 1.68115234 C84.11324387 1.67110672 83.19597015 1.6610611 82.25090027 1.65071106 C79.21545037 1.61979142 76.18008902 1.6028195 73.14453125 1.5859375 C71.04130792 1.56723292 68.93809214 1.54766005 66.83488464 1.5272522 C61.29636077 1.47585001 55.75781255 1.43626756 50.21917725 1.39910889 C44.56858252 1.35911991 38.9180898 1.3080043 33.26757812 1.2578125 C22.17845699 1.16095747 11.08927836 1.07658335 0 1 C0 0.67 0 0.34 0 0 Z " fill="#D7F0FA" transform="translate(208,37)"/>
<path d="M0 0 C3.29714793 0.32971479 4.6226839 0.6226839 7 3 C6.625 6.125 6.625 6.125 6 9 C0.56559513 10.32841008 0.56559513 10.32841008 -1.9375 8.875 C-3 7 -3 7 -2.8125 4.4375 C-2 2 -2 2 0 0 Z " fill="#121212" transform="translate(191,282)"/>
<path d="M0 0 C2 0.6875 2 0.6875 4 2.6875 C3.625 4.8125 3.625 4.8125 3 6.6875 C0.125 7.3125 0.125 7.3125 -3 7.6875 C-3.66 7.0275 -4.32 6.3675 -5 5.6875 C-4.75 3.125 -4.75 3.125 -4 0.6875 C-2 -0.3125 -2 -0.3125 0 0 Z " fill="#242424" transform="translate(158,326.3125)"/>
<path d="M0 0 C7 0 7 0 8.9375 1.3125 C10 3 10 3 10 6 C9.34 6 8.68 6 8 6 C7.34 5.01 6.68 4.02 6 3 C3.94074861 2.27617533 3.94074861 2.27617533 2 2 C2.185625 3.010625 2.37125 4.02125 2.5625 5.0625 C2.99768247 8.97914227 2.70853021 12.14244663 2 16 C1.34 16 0.68 16 0 16 C0 10.72 0 5.44 0 0 Z " fill="#0F0F0F" transform="translate(493,298)"/>
<path d="M0 0 C0 0.33 0 0.66 0 1 C-0.90621094 1.18175781 -1.81242187 1.36351562 -2.74609375 1.55078125 C-9.68514432 2.98264883 -16.33711314 4.58757545 -23 7 C-22.69921875 5.109375 -22.69921875 5.109375 -22 3 C-14.97112225 -0.8589917 -7.84495556 -0.29749129 0 0 Z " fill="#37ADE5" transform="translate(203,38)"/>
<path d="M0 0 C0 0.33 0 0.66 0 1 C-7.59 1 -15.18 1 -23 1 C-14.33049186 -3.33475407 -9.08623834 -3.16961803 0 0 Z " fill="#1E5CB3" transform="translate(355,240)"/>
<path d="M0 0 C4.95003075 1.9800123 7.13939157 3.58829953 11 7 C10.01 8.485 10.01 8.485 9 10 C9 10.66 9 11.32 9 12 C7.03852126 13.38938077 5.03833424 14.7260411 3 16 C4.875 11.25 4.875 11.25 6 9 C4.02 6.03 2.04 3.06 0 0 Z " fill="#248BCD" transform="translate(220,44)"/>
<path d="M0 0 C0 0.33 0 0.66 0 1 C-6.93 1 -13.86 1 -21 1 C-12.59632512 -3.20183744 -8.70634003 -3.03709536 0 0 Z " fill="#1E5CB3" transform="translate(401,240)"/>
<path d="M0 0 C0.66 0.33 1.32 0.66 2 1 C1.28714844 1.50789063 0.57429688 2.01578125 -0.16015625 2.5390625 C-5.65455904 6.48793341 -10.94262809 10.5045583 -16 15 C-15.67 13.35 -15.34 11.7 -15 10 C-14.360625 9.896875 -13.72125 9.79375 -13.0625 9.6875 C-12.0415625 9.3471875 -12.0415625 9.3471875 -11 9 C-10.67 8.01 -10.34 7.02 -10 6 C-7.78515625 4.359375 -7.78515625 4.359375 -5.0625 2.75 C-4.16660156 2.20859375 -3.27070313 1.6671875 -2.34765625 1.109375 C-1.57292969 0.74328125 -0.79820312 0.3771875 0 0 Z " fill="#55B2E4" transform="translate(178,45)"/>
<path d="M0 0 C7.92 0 15.84 0 24 0 C22.35 1.32 20.7 2.64 19 4 C18.01 3.34 17.02 2.68 16 2 C13.24582682 1.69933846 10.57354853 1.49074701 7.8125 1.375 C6.68811523 1.31699219 6.68811523 1.31699219 5.54101562 1.2578125 C3.69440801 1.16371784 1.8472381 1.08077681 0 1 C0 0.67 0 0.34 0 0 Z " fill="#BBDDEF" transform="translate(286,37)"/>
<path d="M0 0 C2.475 0.495 2.475 0.495 5 1 C5 2.32 5 3.64 5 5 C3.35 5 1.7 5 0 5 C0 3.35 0 1.7 0 0 Z " fill="#F2F2F2" transform="translate(495,300)"/>
<path d="M0 0 C2.1015625 0.42578125 2.1015625 0.42578125 4 1 C2.8803014 2.00593243 1.7540588 3.0045849 0.625 4 C-0.00148438 4.556875 -0.62796875 5.11375 -1.2734375 5.6875 C-3 7 -3 7 -5 7 C-3.7251791 4.15616877 -2.54862922 1.86245982 0 0 Z " fill="#2B8FD1" transform="translate(452,220)"/>
<path d="M0 0 C0.33 0.99 0.66 1.98 1 3 C0.67 3.66 0.34 4.32 0 5 C0.66 5.33 1.32 5.66 2 6 C0.68 7.98 -0.64 9.96 -2 12 C-3.15957207 8.52128379 -2.77456651 7.65780355 -1.5625 4.3125 C-1.13130859 3.10013672 -1.13130859 3.10013672 -0.69140625 1.86328125 C-0.46324219 1.24839844 -0.23507813 0.63351563 0 0 Z " fill="#7AD0F3" transform="translate(200,113)"/>
<path d="M0 0 C1 3 1 3 0.375 5.5625 C-1.33177722 8.58815053 -2.73058318 9.05358987 -6 10 C-4.34832443 6.4213696 -2.21713508 3.25179812 0 0 Z " fill="#54BDED" transform="translate(195,127)"/>
<path d="M0 0 C0 0.99 0 1.98 0 3 C-2.5 5.1875 -2.5 5.1875 -5 7 C-4.75 4.625 -4.75 4.625 -4 2 C-1.9375 0.6875 -1.9375 0.6875 0 0 Z " fill="#4AA9E0" transform="translate(167,53)"/>
</svg>
